# xmcd
#
# Track frame offsets:
#	150
#	14073
#	32088
#	49439
#	66782
#	83988
#	96208
#	109933
#	127488
#	139011
#
# Disc length: 2041 seconds
#
# Revision: 0
# Processed by: cddbd v1.4PL0 Copyright (c) Steve Scherf et al.
# Submitted via: dBpowerAMP V4.0
#
DISCID=9707f70a
DTITLE=Chely Wright - Let Me In
DYEAR=1997
DGENRE=Country
TTITLE0=Your Woman Misses Her Man
TTITLE1=Let Me In
TTITLE2=Shut Up And Drive
TTITLE3=Emma Jean's Guitar
TTITLE4=I Already Do
TTITLE5=Just Another Heartache
TTITLE6=Is It Love Yet
TTITLE7=Before You Lie
TTITLE8=Feelin' Single And Seein' Double
TTITLE9=10 Lb. Heart
EXTD=
EXTT0=
EXTT1=
EXTT2=
EXTT3=
EXTT4=
EXTT5=
EXTT6=
EXTT7=
EXTT8=
EXTT9=
PLAYORDER=
